<svg id="visual" viewBox="0 0 900 600" width="900" height="600" xmlns="http://www.w3.org/2000/svg" xmlns:xlink="http://www.w3.org/1999/xlink" version="1.1"><rect x="0" y="0" width="900" height="600" fill="#ffffff"></rect><path d="M0 403L21.5 397C43 391 86 379 128.8 380.3C171.7 381.7 214.3 396.3 257.2 404.2C300 412 343 413 385.8 417.5C428.7 422 471.3 430 514.2 425C557 420 600 402 642.8 397.2C685.7 392.3 728.3 400.7 771.2 400.7C814 400.7 857 392.3 878.5 388.2L900 384L900 601L878.5 601C857 601 814 601 771.2 601C728.3 601 685.7 601 642.8 601C600 601 557 601 514.2 601C471.3 601 428.7 601 385.8 601C343 601 300 601 257.2 601C214.3 601 171.7 601 128.8 601C86 601 43 601 21.5 601L0 601Z" fill="#ffa35e"></path><path d="M0 458L21.5 456.8C43 455.7 86 453.3 128.8 455.5C171.7 457.7 214.3 464.3 257.2 456.2C300 448 343 425 385.8 416.3C428.7 407.7 471.3 413.3 514.2 416.5C557 419.7 600 420.3 642.8 429.8C685.7 439.3 728.3 457.7 771.2 466.2C814 474.7 857 473.3 878.5 472.7L900 472L900 601L878.5 601C857 601 814 601 771.2 601C728.3 601 685.7 601 642.8 601C600 601 557 601 514.2 601C471.3 601 428.7 601 385.8 601C343 601 300 601 257.2 601C214.3 601 171.7 601 128.8 601C86 601 43 601 21.5 601L0 601Z" fill="#fc8e3b"></path><path d="M0 475L21.5 476.8C43 478.7 86 482.3 128.8 487.3C171.7 492.3 214.3 498.7 257.2 496.8C300 495 343 485 385.8 475.7C428.7 466.3 471.3 457.7 514.2 463C557 468.3 600 487.7 642.8 495.3C685.7 503 728.3 499 771.2 496.2C814 493.3 857 491.7 878.5 490.8L900 490L900 601L878.5 601C857 601 814 601 771.2 601C728.3 601 685.7 601 642.8 601C600 601 557 601 514.2 601C471.3 601 428.7 601 385.8 601C343 601 300 601 257.2 601C214.3 601 171.7 601 128.8 601C86 601 43 601 21.5 601L0 601Z" fill="#f7770f"></path><path d="M0 538L21.5 528.5C43 519 86 500 128.8 499.8C171.7 499.7 214.3 518.3 257.2 528.7C300 539 343 541 385.8 536.7C428.7 532.3 471.3 521.7 514.2 513.2C557 504.7 600 498.3 642.8 503.2C685.7 508 728.3 524 771.2 525.5C814 527 857 514 878.5 507.5L900 501L900 601L878.5 601C857 601 814 601 771.2 601C728.3 601 685.7 601 642.8 601C600 601 557 601 514.2 601C471.3 601 428.7 601 385.8 601C343 601 300 601 257.2 601C214.3 601 171.7 601 128.8 601C86 601 43 601 21.5 601L0 601Z" fill="#d5670f"></path><path d="M0 528L21.5 528C43 528 86 528 128.8 534C171.7 540 214.3 552 257.2 559.2C300 566.3 343 568.7 385.8 568C428.7 567.3 471.3 563.7 514.2 562.2C557 560.7 600 561.3 642.8 562.2C685.7 563 728.3 564 771.2 559.8C814 555.7 857 546.3 878.5 541.7L900 537L900 601L878.5 601C857 601 814 601 771.2 601C728.3 601 685.7 601 642.8 601C600 601 557 601 514.2 601C471.3 601 428.7 601 385.8 601C343 601 300 601 257.2 601C214.3 601 171.7 601 128.8 601C86 601 43 601 21.5 601L0 601Z" fill="#b5580e"></path></svg>