<svg id="visual" viewBox="0 0 1550 800" width="1550" height="800" xmlns="http://www.w3.org/2000/svg" xmlns:xlink="http://www.w3.org/1999/xlink" version="1.1"><rect x="0" y="0" width="1550" height="800" fill="#ffffff"></rect><defs><linearGradient id="grad1_0" x1="48.4%" y1="100%" x2="100%" y2="0%"><stop offset="11.25%" stop-color="#ff6900" stop-opacity="1"></stop><stop offset="88.75%" stop-color="#ff6900" stop-opacity="1"></stop></linearGradient></defs><defs><linearGradient id="grad1_1" x1="48.4%" y1="100%" x2="100%" y2="0%"><stop offset="11.25%" stop-color="#ff6900" stop-opacity="1"></stop><stop offset="88.75%" stop-color="#ff8035" stop-opacity="1"></stop></linearGradient></defs><defs><linearGradient id="grad1_2" x1="48.4%" y1="100%" x2="100%" y2="0%"><stop offset="11.25%" stop-color="#ff9657" stop-opacity="1"></stop><stop offset="88.75%" stop-color="#ff8035" stop-opacity="1"></stop></linearGradient></defs><defs><linearGradient id="grad1_3" x1="48.4%" y1="100%" x2="100%" y2="0%"><stop offset="11.25%" stop-color="#ff9657" stop-opacity="1"></stop><stop offset="88.75%" stop-color="#ffab78" stop-opacity="1"></stop></linearGradient></defs><defs><linearGradient id="grad1_4" x1="48.4%" y1="100%" x2="100%" y2="0%"><stop offset="11.25%" stop-color="#ffc099" stop-opacity="1"></stop><stop offset="88.75%" stop-color="#ffab78" stop-opacity="1"></stop></linearGradient></defs><defs><linearGradient id="grad1_5" x1="48.4%" y1="100%" x2="100%" y2="0%"><stop offset="11.25%" stop-color="#ffc099" stop-opacity="1"></stop><stop offset="88.75%" stop-color="#ffd5ba" stop-opacity="1"></stop></linearGradient></defs><defs><linearGradient id="grad1_6" x1="48.4%" y1="100%" x2="100%" y2="0%"><stop offset="11.25%" stop-color="#ffeadc" stop-opacity="1"></stop><stop offset="88.75%" stop-color="#ffd5ba" stop-opacity="1"></stop></linearGradient></defs><defs><linearGradient id="grad1_7" x1="48.4%" y1="100%" x2="100%" y2="0%"><stop offset="11.25%" stop-color="#ffeadc" stop-opacity="1"></stop><stop offset="88.75%" stop-color="#ffffff" stop-opacity="1"></stop></linearGradient></defs><defs><linearGradient id="grad2_0" x1="0%" y1="100%" x2="51.6%" y2="0%"><stop offset="11.25%" stop-color="#ff6900" stop-opacity="1"></stop><stop offset="88.75%" stop-color="#ff6900" stop-opacity="1"></stop></linearGradient></defs><defs><linearGradient id="grad2_1" x1="0%" y1="100%" x2="51.6%" y2="0%"><stop offset="11.25%" stop-color="#ff8035" stop-opacity="1"></stop><stop offset="88.75%" stop-color="#ff6900" stop-opacity="1"></stop></linearGradient></defs><defs><linearGradient id="grad2_2" x1="0%" y1="100%" x2="51.6%" y2="0%"><stop offset="11.25%" stop-color="#ff8035" stop-opacity="1"></stop><stop offset="88.75%" stop-color="#ff9657" stop-opacity="1"></stop></linearGradient></defs><defs><linearGradient id="grad2_3" x1="0%" y1="100%" x2="51.6%" y2="0%"><stop offset="11.25%" stop-color="#ffab78" stop-opacity="1"></stop><stop offset="88.75%" stop-color="#ff9657" stop-opacity="1"></stop></linearGradient></defs><defs><linearGradient id="grad2_4" x1="0%" y1="100%" x2="51.6%" y2="0%"><stop offset="11.25%" stop-color="#ffab78" stop-opacity="1"></stop><stop offset="88.75%" stop-color="#ffc099" stop-opacity="1"></stop></linearGradient></defs><defs><linearGradient id="grad2_5" x1="0%" y1="100%" x2="51.6%" y2="0%"><stop offset="11.25%" stop-color="#ffd5ba" stop-opacity="1"></stop><stop offset="88.75%" stop-color="#ffc099" stop-opacity="1"></stop></linearGradient></defs><defs><linearGradient id="grad2_6" x1="0%" y1="100%" x2="51.6%" y2="0%"><stop offset="11.25%" stop-color="#ffd5ba" stop-opacity="1"></stop><stop offset="88.75%" stop-color="#ffeadc" stop-opacity="1"></stop></linearGradient></defs><defs><linearGradient id="grad2_7" x1="0%" y1="100%" x2="51.6%" y2="0%"><stop offset="11.25%" stop-color="#ffffff" stop-opacity="1"></stop><stop offset="88.75%" stop-color="#ffeadc" stop-opacity="1"></stop></linearGradient></defs><g transform="translate(1550, 800)"><path d="M-800 0C-797.7 -46.7 -795.5 -93.3 -784.9 -138.4C-774.3 -183.5 -755.3 -227 -733 -266.8C-710.6 -306.5 -684.8 -342.4 -666 -384.5C-647.1 -426.6 -635.3 -474.8 -605.9 -508.4C-576.6 -542.1 -529.8 -561.3 -490.4 -584.5C-451.1 -607.7 -419.1 -634.9 -385.5 -667.7C-351.9 -700.5 -316.6 -739 -273.6 -751.8C-230.7 -764.5 -180.1 -751.6 -133.2 -755.3C-86.3 -759.1 -43.2 -779.6 0 -800L0 0Z" fill="#fff5ee"></path><path d="M-700 0C-698 -40.8 -696.1 -81.6 -686.8 -121.1C-677.5 -160.6 -660.9 -198.7 -641.3 -233.4C-621.8 -268.2 -599.2 -299.6 -582.7 -336.4C-566.3 -373.2 -555.9 -415.4 -530.2 -444.9C-504.5 -474.4 -463.6 -491.1 -429.1 -511.4C-394.7 -531.7 -366.7 -555.5 -337.3 -584.2C-307.9 -613 -277 -646.6 -239.4 -657.8C-201.8 -669 -157.6 -657.6 -116.5 -660.9C-75.5 -664.2 -37.8 -682.1 0 -700L0 0Z" fill="#ffe0cb"></path><path d="M-600 0C-598.3 -35 -596.6 -70 -588.7 -103.8C-580.7 -137.6 -566.5 -170.3 -549.7 -200.1C-532.9 -229.9 -513.6 -256.8 -499.5 -288.4C-485.4 -319.9 -476.5 -356.1 -454.5 -381.3C-432.5 -406.6 -397.4 -421 -367.8 -438.4C-338.3 -455.8 -314.3 -476.2 -289.1 -500.8C-263.9 -525.4 -237.4 -554.2 -205.2 -563.8C-173 -573.4 -135 -563.7 -99.9 -566.5C-64.7 -569.3 -32.4 -584.7 0 -600L0 0Z" fill="#ffcbaa"></path><path d="M-500 0C-498.6 -29.2 -497.2 -58.3 -490.6 -86.5C-483.9 -114.7 -472.1 -141.9 -458.1 -166.7C-444.1 -191.6 -428 -214 -416.2 -240.3C-404.5 -266.6 -397 -296.7 -378.7 -317.8C-360.4 -338.8 -331.1 -350.8 -306.5 -365.3C-281.9 -379.8 -262 -396.8 -240.9 -417.3C-219.9 -437.8 -197.9 -461.9 -171 -469.8C-144.2 -477.8 -112.5 -469.7 -83.2 -472.1C-53.9 -474.4 -27 -487.2 0 -500L0 0Z" fill="#ffb689"></path><path d="M-400 0C-398.9 -23.3 -397.7 -46.7 -392.4 -69.2C-387.1 -91.7 -377.7 -113.5 -366.5 -133.4C-355.3 -153.3 -342.4 -171.2 -333 -192.3C-323.6 -213.3 -317.6 -237.4 -303 -254.2C-288.3 -271.1 -264.9 -280.7 -245.2 -292.2C-225.5 -303.8 -209.6 -317.4 -192.8 -333.9C-175.9 -350.3 -158.3 -369.5 -136.8 -375.9C-115.3 -382.3 -90 -375.8 -66.6 -377.7C-43.2 -379.6 -21.6 -389.8 0 -400L0 0Z" fill="#ffa168"></path><path d="M-300 0C-299.2 -17.5 -298.3 -35 -294.3 -51.9C-290.4 -68.8 -283.2 -85.1 -274.9 -100C-266.5 -114.9 -256.8 -128.4 -249.7 -144.2C-242.7 -160 -238.2 -178 -227.2 -190.7C-216.2 -203.3 -198.7 -210.5 -183.9 -219.2C-169.2 -227.9 -157.2 -238.1 -144.6 -250.4C-132 -262.7 -118.7 -277.1 -102.6 -281.9C-86.5 -286.7 -67.5 -281.8 -49.9 -283.3C-32.4 -284.7 -16.2 -292.3 0 -300L0 0Z" fill="#ff8b47"></path><path d="M-200 0C-199.4 -11.7 -198.9 -23.3 -196.2 -34.6C-193.6 -45.9 -188.8 -56.8 -183.2 -66.7C-177.6 -76.6 -171.2 -85.6 -166.5 -96.1C-161.8 -106.6 -158.8 -118.7 -151.5 -127.1C-144.2 -135.5 -132.5 -140.3 -122.6 -146.1C-112.8 -151.9 -104.8 -158.7 -96.4 -166.9C-88 -175.1 -79.1 -184.7 -68.4 -187.9C-57.7 -191.1 -45 -187.9 -33.3 -188.8C-21.6 -189.8 -10.8 -194.9 0 -200L0 0Z" fill="#ff7521"></path><path d="M-100 0C-99.7 -5.8 -99.4 -11.7 -98.1 -17.3C-96.8 -22.9 -94.4 -28.4 -91.6 -33.3C-88.8 -38.3 -85.6 -42.8 -83.2 -48.1C-80.9 -53.3 -79.4 -59.3 -75.7 -63.6C-72.1 -67.8 -66.2 -70.2 -61.3 -73.1C-56.4 -76 -52.4 -79.4 -48.2 -83.5C-44 -87.6 -39.6 -92.4 -34.2 -94C-28.8 -95.6 -22.5 -93.9 -16.6 -94.4C-10.8 -94.9 -5.4 -97.4 0 -100L0 0Z" fill="#ff6900"></path></g><g transform="translate(0, 0)"><path d="M800 0C791.6 45.9 783.3 91.9 770.1 135.8C756.9 179.7 739 221.6 721.7 262.7C704.4 303.7 687.8 343.9 672.9 388.5C658 433.1 644.7 482.2 612.8 514.2C581 546.3 530.6 561.3 491.1 585.3C451.5 609.2 422.8 642 389 673.8C355.2 705.5 316.4 736.1 272.9 749.9C229.5 763.7 181.4 760.6 135.1 766.2C88.8 771.7 44.4 785.9 0 800L0 0Z" fill="#fff5ee"></path><path d="M700 0C692.7 40.2 685.4 80.4 673.9 118.8C662.3 157.3 646.6 193.9 631.5 229.8C616.4 265.7 601.9 300.9 588.8 339.9C575.7 379 564.1 421.9 536.2 450C508.4 478 464.3 491.2 429.7 512.1C395.1 533 369.9 561.8 340.4 589.5C310.8 617.3 276.8 644.1 238.8 656.1C200.8 668.2 158.7 665.6 118.2 670.4C77.7 675.3 38.9 687.6 0 700L0 0Z" fill="#ffe0cb"></path><path d="M600 0C593.7 34.5 587.5 68.9 577.6 101.8C567.7 134.8 554.2 166.2 541.3 197C528.3 227.8 515.9 257.9 504.7 291.4C493.5 324.8 483.5 361.6 459.6 385.7C435.8 409.7 398 421 368.3 438.9C338.7 456.9 317.1 481.5 291.8 505.3C266.4 529.1 237.3 552.1 204.7 562.4C172.1 572.7 136 570.5 101.3 574.6C66.6 578.8 33.3 589.4 0 600L0 0Z" fill="#ffcbaa"></path><path d="M500 0C494.8 28.7 489.6 57.4 481.3 84.9C473.1 112.3 461.9 138.5 451.1 164.2C440.3 189.8 429.9 214.9 420.6 242.8C411.2 270.7 402.9 301.4 383 321.4C363.1 341.4 331.7 350.8 306.9 365.8C282.2 380.7 264.2 401.3 243.1 421.1C222 440.9 197.7 460.1 170.6 468.7C143.4 477.3 113.4 475.4 84.4 478.9C55.5 482.3 27.8 491.2 0 500L0 0Z" fill="#ffb689"></path><path d="M400 0C395.8 23 391.6 45.9 385.1 67.9C378.5 89.9 369.5 110.8 360.8 131.3C352.2 151.9 343.9 171.9 336.5 194.2C329 216.6 322.3 241.1 306.4 257.1C290.5 273.1 265.3 280.7 245.5 292.6C225.8 304.6 211.4 321 194.5 336.9C177.6 352.7 158.2 368 136.5 374.9C114.7 381.8 90.7 380.3 67.5 383.1C44.4 385.9 22.2 392.9 0 400L0 0Z" fill="#ffa168"></path><path d="M300 0C296.9 17.2 293.7 34.5 288.8 50.9C283.9 67.4 277.1 83.1 270.6 98.5C264.2 113.9 257.9 129 252.3 145.7C246.7 162.4 241.7 180.8 229.8 192.8C217.9 204.9 199 210.5 184.2 219.5C169.3 228.4 158.5 240.8 145.9 252.7C133.2 264.6 118.6 276 102.3 281.2C86.1 286.4 68 285.2 50.7 287.3C33.3 289.4 16.7 294.7 0 300L0 0Z" fill="#ff8b47"></path><path d="M200 0C197.9 11.5 195.8 23 192.5 33.9C189.2 44.9 184.7 55.4 180.4 65.7C176.1 75.9 172 86 168.2 97.1C164.5 108.3 161.2 120.5 153.2 128.6C145.3 136.6 132.7 140.3 122.8 146.3C112.9 152.3 105.7 160.5 97.3 168.4C88.8 176.4 79.1 184 68.2 187.5C57.4 190.9 45.3 190.2 33.8 191.5C22.2 192.9 11.1 196.5 0 200L0 0Z" fill="#ff7521"></path><path d="M100 0C99 5.7 97.9 11.5 96.3 17C94.6 22.5 92.4 27.7 90.2 32.8C88.1 38 86 43 84.1 48.6C82.2 54.1 80.6 60.3 76.6 64.3C72.6 68.3 66.3 70.2 61.4 73.2C56.4 76.1 52.8 80.3 48.6 84.2C44.4 88.2 39.5 92 34.1 93.7C28.7 95.5 22.7 95.1 16.9 95.8C11.1 96.5 5.6 98.2 0 100L0 0Z" fill="#ff6900"></path></g></svg>