<svg id="visual" viewBox="0 0 1920 1200" width="1920" height="1200" xmlns="http://www.w3.org/2000/svg" xmlns:xlink="http://www.w3.org/1999/xlink" version="1.1"><rect x="0" y="0" width="1920" height="1200" fill="#ffffff"></rect><path d="M0 818L45.7 862.5C91.3 907 182.7 996 274.2 1003.7C365.7 1011.3 457.3 937.7 548.8 926.5C640.3 915.3 731.7 966.7 823 970.7C914.3 974.7 1005.7 931.3 1097 935C1188.3 938.7 1279.7 989.3 1371.2 1000.3C1462.7 1011.3 1554.3 982.7 1645.8 963.3C1737.3 944 1828.7 934 1874.3 929L1920 924L1920 1201L1874.3 1201C1828.7 1201 1737.3 1201 1645.8 1201C1554.3 1201 1462.7 1201 1371.2 1201C1279.7 1201 1188.3 1201 1097 1201C1005.7 1201 914.3 1201 823 1201C731.7 1201 640.3 1201 548.8 1201C457.3 1201 365.7 1201 274.2 1201C182.7 1201 91.3 1201 45.7 1201L0 1201Z" fill="#ff7300" stroke-linecap="round" stroke-linejoin="miter"></path></svg>