<svg id="visual" viewBox="0 0 1600 1000" width="1600" height="1000" xmlns="http://www.w3.org/2000/svg" xmlns:xlink="http://www.w3.org/1999/xlink" version="1.1"><rect x="0" y="0" width="1600" height="1000" fill="#ffffff"></rect><defs><linearGradient id="grad1_0" x1="37.5%" y1="100%" x2="100%" y2="0%"><stop offset="17.999999999999996%" stop-color="#ff9000" stop-opacity="1"></stop><stop offset="82%" stop-color="#ff9000" stop-opacity="1"></stop></linearGradient></defs><defs><linearGradient id="grad1_1" x1="37.5%" y1="100%" x2="100%" y2="0%"><stop offset="17.999999999999996%" stop-color="#ff9000" stop-opacity="1"></stop><stop offset="82%" stop-color="#ffac55" stop-opacity="1"></stop></linearGradient></defs><defs><linearGradient id="grad1_2" x1="37.5%" y1="100%" x2="100%" y2="0%"><stop offset="17.999999999999996%" stop-color="#ffc78e" stop-opacity="1"></stop><stop offset="82%" stop-color="#ffac55" stop-opacity="1"></stop></linearGradient></defs><defs><linearGradient id="grad1_3" x1="37.5%" y1="100%" x2="100%" y2="0%"><stop offset="17.999999999999996%" stop-color="#ffc78e" stop-opacity="1"></stop><stop offset="82%" stop-color="#ffe3c6" stop-opacity="1"></stop></linearGradient></defs><defs><linearGradient id="grad1_4" x1="37.5%" y1="100%" x2="100%" y2="0%"><stop offset="17.999999999999996%" stop-color="#ffffff" stop-opacity="1"></stop><stop offset="82%" stop-color="#ffe3c6" stop-opacity="1"></stop></linearGradient></defs><defs><linearGradient id="grad2_0" x1="0%" y1="100%" x2="62.5%" y2="0%"><stop offset="17.999999999999996%" stop-color="#ff9000" stop-opacity="1"></stop><stop offset="82%" stop-color="#ff9000" stop-opacity="1"></stop></linearGradient></defs><defs><linearGradient id="grad2_1" x1="0%" y1="100%" x2="62.5%" y2="0%"><stop offset="17.999999999999996%" stop-color="#ffac55" stop-opacity="1"></stop><stop offset="82%" stop-color="#ff9000" stop-opacity="1"></stop></linearGradient></defs><defs><linearGradient id="grad2_2" x1="0%" y1="100%" x2="62.5%" y2="0%"><stop offset="17.999999999999996%" stop-color="#ffac55" stop-opacity="1"></stop><stop offset="82%" stop-color="#ffc78e" stop-opacity="1"></stop></linearGradient></defs><defs><linearGradient id="grad2_3" x1="0%" y1="100%" x2="62.5%" y2="0%"><stop offset="17.999999999999996%" stop-color="#ffe3c6" stop-opacity="1"></stop><stop offset="82%" stop-color="#ffc78e" stop-opacity="1"></stop></linearGradient></defs><defs><linearGradient id="grad2_4" x1="0%" y1="100%" x2="62.5%" y2="0%"><stop offset="17.999999999999996%" stop-color="#ffe3c6" stop-opacity="1"></stop><stop offset="82%" stop-color="#ffffff" stop-opacity="1"></stop></linearGradient></defs><g transform="translate(1600, 1000)"><path d="M-943.4 0C-942.5 -72.2 -941.6 -144.5 -919.7 -209.9C-897.9 -275.4 -855.2 -334.1 -820.8 -395.3C-786.4 -456.4 -760.4 -520.1 -720.1 -574.2C-679.7 -628.4 -625 -673.1 -568.6 -713C-512.2 -753 -454.1 -788.2 -393.1 -816.3C-332.1 -844.3 -268.1 -865.2 -202 -885.2C-136 -905.2 -68 -924.3 0 -943.4L0 0Z" fill="#fff1e2"></path><path d="M-754.7 0C-754 -57.8 -753.3 -115.6 -735.8 -167.9C-718.3 -220.3 -684.1 -267.3 -656.6 -316.2C-629.1 -365.2 -608.3 -416.1 -576.1 -459.4C-543.8 -502.7 -500 -538.5 -454.9 -570.4C-409.8 -602.4 -363.3 -630.6 -314.5 -653C-265.6 -675.5 -214.4 -692.2 -161.6 -708.2C-108.8 -724.2 -54.4 -739.5 0 -754.7L0 0Z" fill="#ffd5aa"></path><path d="M-566 0C-565.5 -43.3 -564.9 -86.7 -551.8 -126C-538.7 -165.2 -513.1 -200.5 -492.5 -237.2C-471.8 -273.9 -456.2 -312 -432 -344.5C-407.8 -377 -375 -403.8 -341.2 -427.8C-307.3 -451.8 -272.5 -472.9 -235.9 -489.8C-199.2 -506.6 -160.8 -519.1 -121.2 -531.1C-81.6 -543.1 -40.8 -554.6 0 -566L0 0Z" fill="#ffb972"></path><path d="M-377.4 0C-377 -28.9 -376.6 -57.8 -367.9 -84C-359.2 -110.2 -342.1 -133.6 -328.3 -158.1C-314.6 -182.6 -304.2 -208 -288 -229.7C-271.9 -251.4 -250 -269.2 -227.4 -285.2C-204.9 -301.2 -181.7 -315.3 -157.2 -326.5C-132.8 -337.7 -107.2 -346.1 -80.8 -354.1C-54.4 -362.1 -27.2 -369.7 0 -377.4L0 0Z" fill="#ff9e35"></path><path d="M-188.7 0C-188.5 -14.4 -188.3 -28.9 -183.9 -42C-179.6 -55.1 -171 -66.8 -164.2 -79.1C-157.3 -91.3 -152.1 -104 -144 -114.8C-135.9 -125.7 -125 -134.6 -113.7 -142.6C-102.4 -150.6 -90.8 -157.6 -78.6 -163.3C-66.4 -168.9 -53.6 -173 -40.4 -177C-27.2 -181 -13.6 -184.9 0 -188.7L0 0Z" fill="#ff9000"></path></g><g transform="translate(0, 0)"><path d="M943.4 0C915.5 65.7 887.5 131.5 873.5 199.4C859.5 267.3 859.4 337.3 841.5 405.2C823.6 473.2 787.8 539.1 737.6 588.2C687.4 637.3 622.7 669.5 565.5 709.1C508.3 748.8 458.7 795.8 400.5 831.6C342.3 867.4 275.6 891.9 207.4 908.6C139.2 925.4 69.6 934.4 0 943.4L0 0Z" fill="#fff1e2"></path><path d="M754.7 0C732.4 52.6 710 105.2 698.8 159.5C687.6 213.8 687.5 269.8 673.2 324.2C658.9 378.6 630.2 431.3 590.1 470.6C549.9 509.8 498.1 535.6 452.4 567.3C406.7 599 366.9 636.7 320.4 665.3C273.8 693.9 220.4 713.5 165.9 726.9C111.4 740.3 55.7 747.5 0 754.7L0 0Z" fill="#ffd5aa"></path><path d="M566 0C549.3 39.4 532.5 78.9 524.1 119.6C515.7 160.4 515.7 202.4 504.9 243.1C494.1 283.9 472.7 323.5 442.5 352.9C412.4 382.4 373.6 401.7 339.3 425.5C305 449.3 275.2 477.5 240.3 499C205.4 520.4 165.3 535.1 124.4 545.2C83.5 555.2 41.8 560.6 0 566L0 0Z" fill="#ffb972"></path><path d="M377.4 0C366.2 26.3 355 52.6 349.4 79.8C343.8 106.9 343.8 134.9 336.6 162.1C329.4 189.3 315.1 215.7 295 235.3C274.9 254.9 249.1 267.8 226.2 283.6C203.3 299.5 183.5 318.3 160.2 332.6C136.9 346.9 110.2 356.8 83 363.5C55.7 370.2 27.8 373.8 0 377.4L0 0Z" fill="#ff9e35"></path><path d="M188.7 0C183.1 13.1 177.5 26.3 174.7 39.9C171.9 53.5 171.9 67.5 168.3 81C164.7 94.6 157.6 107.8 147.5 117.6C137.5 127.5 124.5 133.9 113.1 141.8C101.7 149.8 91.7 159.2 80.1 166.3C68.5 173.5 55.1 178.4 41.5 181.7C27.8 185.1 13.9 186.9 0 188.7L0 0Z" fill="#ff9000"></path></g></svg>