<svg id="visual" viewBox="0 0 1920 1200" width="1920" height="1200" xmlns="http://www.w3.org/2000/svg" xmlns:xlink="http://www.w3.org/1999/xlink" version="1.1"><rect x="0" y="0" width="1920" height="1200" fill="#ffffff"></rect><defs><linearGradient id="grad1_0" x1="37.5%" y1="0%" x2="100%" y2="100%"><stop offset="17.999999999999996%" stop-color="#fbae3c" stop-opacity="1"></stop><stop offset="82%" stop-color="#fbae3c" stop-opacity="1"></stop></linearGradient></defs><defs><linearGradient id="grad1_1" x1="37.5%" y1="0%" x2="100%" y2="100%"><stop offset="17.999999999999996%" stop-color="#fbae3c" stop-opacity="1"></stop><stop offset="82%" stop-color="#ffc270" stop-opacity="1"></stop></linearGradient></defs><defs><linearGradient id="grad1_2" x1="37.5%" y1="0%" x2="100%" y2="100%"><stop offset="17.999999999999996%" stop-color="#ffd69f" stop-opacity="1"></stop><stop offset="82%" stop-color="#ffc270" stop-opacity="1"></stop></linearGradient></defs><defs><linearGradient id="grad1_3" x1="37.5%" y1="0%" x2="100%" y2="100%"><stop offset="17.999999999999996%" stop-color="#ffd69f" stop-opacity="1"></stop><stop offset="82%" stop-color="#ffeacf" stop-opacity="1"></stop></linearGradient></defs><defs><linearGradient id="grad1_4" x1="37.5%" y1="0%" x2="100%" y2="100%"><stop offset="17.999999999999996%" stop-color="#ffffff" stop-opacity="1"></stop><stop offset="82%" stop-color="#ffeacf" stop-opacity="1"></stop></linearGradient></defs><defs><linearGradient id="grad2_0" x1="0%" y1="0%" x2="62.5%" y2="100%"><stop offset="17.999999999999996%" stop-color="#fbae3c" stop-opacity="1"></stop><stop offset="82%" stop-color="#fbae3c" stop-opacity="1"></stop></linearGradient></defs><defs><linearGradient id="grad2_1" x1="0%" y1="0%" x2="62.5%" y2="100%"><stop offset="17.999999999999996%" stop-color="#ffc270" stop-opacity="1"></stop><stop offset="82%" stop-color="#fbae3c" stop-opacity="1"></stop></linearGradient></defs><defs><linearGradient id="grad2_2" x1="0%" y1="0%" x2="62.5%" y2="100%"><stop offset="17.999999999999996%" stop-color="#ffc270" stop-opacity="1"></stop><stop offset="82%" stop-color="#ffd69f" stop-opacity="1"></stop></linearGradient></defs><defs><linearGradient id="grad2_3" x1="0%" y1="0%" x2="62.5%" y2="100%"><stop offset="17.999999999999996%" stop-color="#ffeacf" stop-opacity="1"></stop><stop offset="82%" stop-color="#ffd69f" stop-opacity="1"></stop></linearGradient></defs><defs><linearGradient id="grad2_4" x1="0%" y1="0%" x2="62.5%" y2="100%"><stop offset="17.999999999999996%" stop-color="#ffeacf" stop-opacity="1"></stop><stop offset="82%" stop-color="#ffffff" stop-opacity="1"></stop></linearGradient></defs><g transform="translate(1920, 0)"><path d="M0 1018.9C-131 971.2 -262 923.6 -350.5 846.3C-439.1 769 -485.2 662.1 -590.4 590.4C-695.7 518.8 -860.1 482.4 -941.3 389.9C-1022.6 297.4 -1020.7 148.7 -1018.9 0L0 0Z" fill="#fff5e7"></path><path d="M0 815.1C-104.8 777 -209.6 738.8 -280.4 677C-351.3 615.2 -388.2 529.7 -472.3 472.3C-556.5 415 -688 385.9 -753.1 311.9C-818.1 237.9 -816.6 119 -815.1 0L0 0Z" fill="#ffe0b7"></path><path d="M0 611.3C-78.6 582.7 -157.2 554.1 -210.3 507.8C-263.5 461.4 -291.1 397.2 -354.3 354.3C-417.4 311.3 -516 289.5 -564.8 233.9C-613.5 178.4 -612.4 89.2 -611.3 0L0 0Z" fill="#ffcc88"></path><path d="M0 407.5C-52.4 388.5 -104.8 369.4 -140.2 338.5C-175.6 307.6 -194.1 264.8 -236.2 236.2C-278.3 207.5 -344 193 -376.5 156C-409 119 -408.3 59.5 -407.5 0L0 0Z" fill="#ffb857"></path><path d="M0 203.8C-26.2 194.2 -52.4 184.7 -70.1 169.3C-87.8 153.8 -97 132.4 -118.1 118.1C-139.1 103.8 -172 96.5 -188.3 78C-204.5 59.5 -204.1 29.7 -203.8 0L0 0Z" fill="#fbae3c"></path></g><g transform="translate(0, 1200)"><path d="M0 -1018.9C97.3 -925.9 194.5 -832.8 331.4 -800.1C468.3 -767.3 644.8 -794.8 720.4 -720.4C796.1 -646.1 770.9 -470 803.8 -332.9C836.7 -195.9 927.8 -97.9 1018.9 0L0 0Z" fill="#fff5e7"></path><path d="M0 -815.1C77.8 -740.7 155.6 -666.3 265.1 -640.1C374.6 -613.8 515.8 -635.8 576.4 -576.4C636.9 -516.9 616.7 -376 643 -266.3C669.4 -156.7 742.2 -78.4 815.1 0L0 0Z" fill="#ffe0b7"></path><path d="M0 -611.3C58.4 -555.5 116.7 -499.7 198.8 -480C281 -460.4 386.9 -476.9 432.3 -432.3C477.7 -387.7 462.5 -282 482.3 -199.8C502 -117.5 556.7 -58.8 611.3 0L0 0Z" fill="#ffcc88"></path><path d="M0 -407.5C38.9 -370.3 77.8 -333.1 132.6 -320C187.3 -306.9 257.9 -317.9 288.2 -288.2C318.4 -258.4 308.3 -188 321.5 -133.2C334.7 -78.4 371.1 -39.2 407.5 0L0 0Z" fill="#ffb857"></path><path d="M0 -203.8C19.5 -185.2 38.9 -166.6 66.3 -160C93.7 -153.5 129 -159 144.1 -144.1C159.2 -129.2 154.2 -94 160.8 -66.6C167.3 -39.2 185.6 -19.6 203.8 0L0 0Z" fill="#fbae3c"></path></g></svg>