<svg xmlns="http://www.w3.org/2000/svg" version="1.1" xmlns:xlink="http://www.w3.org/1999/xlink" xmlns:svgjs="http://svgjs.com/svgjs" width="1440" height="560" preserveAspectRatio="none" viewBox="0 0 1440 560"><g mask="url(&quot;#SvgjsMask1033&quot;)" fill="none"><path d="M472 5L142 335" stroke-width="6" stroke="url(#SvgjsLinearGradient1034)" stroke-linecap="round" class="BottomLeft"></path><path d="M1435 220L1789 -134" stroke-width="6" stroke="url(#SvgjsLinearGradient1034)" stroke-linecap="round" class="BottomLeft"></path><path d="M372 67L-38 477" stroke-width="6" stroke="url(#SvgjsLinearGradient1035)" stroke-linecap="round" class="TopRight"></path><path d="M1091 417L1371 137" stroke-width="6" stroke="url(#SvgjsLinearGradient1034)" stroke-linecap="round" class="BottomLeft"></path><path d="M1098 557L928 727" stroke-width="10" stroke="url(#SvgjsLinearGradient1034)" stroke-linecap="round" class="BottomLeft"></path><path d="M1276 227L1511 -8" stroke-width="8" stroke="url(#SvgjsLinearGradient1035)" stroke-linecap="round" class="TopRight"></path><path d="M88 528L-259 875" stroke-width="10" stroke="url(#SvgjsLinearGradient1034)" stroke-linecap="round" class="BottomLeft"></path><path d="M1011 535L1156 390" stroke-width="8" stroke="url(#SvgjsLinearGradient1034)" stroke-linecap="round" class="BottomLeft"></path><path d="M290 493L468 315" stroke-width="10" stroke="url(#SvgjsLinearGradient1035)" stroke-linecap="round" class="TopRight"></path><path d="M578 119L722 -25" stroke-width="8" stroke="url(#SvgjsLinearGradient1034)" stroke-linecap="round" class="BottomLeft"></path><path d="M967 201L1187 -19" stroke-width="8" stroke="url(#SvgjsLinearGradient1034)" stroke-linecap="round" class="BottomLeft"></path><path d="M470 190L654 6" stroke-width="10" stroke="url(#SvgjsLinearGradient1035)" stroke-linecap="round" class="TopRight"></path><path d="M1119 250L949 420" stroke-width="8" stroke="url(#SvgjsLinearGradient1035)" stroke-linecap="round" class="TopRight"></path><path d="M778 373L457 694" stroke-width="10" stroke="url(#SvgjsLinearGradient1034)" stroke-linecap="round" class="BottomLeft"></path><path d="M464 438L685 217" stroke-width="10" stroke="url(#SvgjsLinearGradient1034)" stroke-linecap="round" class="BottomLeft"></path><path d="M317 479L550 246" stroke-width="6" stroke="url(#SvgjsLinearGradient1034)" stroke-linecap="round" class="BottomLeft"></path><path d="M1287 134L1493 -72" stroke-width="10" stroke="url(#SvgjsLinearGradient1034)" stroke-linecap="round" class="BottomLeft"></path><path d="M441 239L203 477" stroke-width="10" stroke="url(#SvgjsLinearGradient1035)" stroke-linecap="round" class="TopRight"></path><path d="M1066 340L692 714" stroke-width="10" stroke="url(#SvgjsLinearGradient1035)" stroke-linecap="round" class="TopRight"></path><path d="M1433 173L1202 404" stroke-width="8" stroke="url(#SvgjsLinearGradient1034)" stroke-linecap="round" class="BottomLeft"></path><path d="M1044 392L1446 -10" stroke-width="8" stroke="url(#SvgjsLinearGradient1035)" stroke-linecap="round" class="TopRight"></path><path d="M1076 226L1406 -104" stroke-width="10" stroke="url(#SvgjsLinearGradient1034)" stroke-linecap="round" class="BottomLeft"></path><path d="M903 76L1056 -77" stroke-width="6" stroke="url(#SvgjsLinearGradient1035)" stroke-linecap="round" class="TopRight"></path><path d="M1211 410L889 732" stroke-width="6" stroke="url(#SvgjsLinearGradient1035)" stroke-linecap="round" class="TopRight"></path><path d="M403 255L76 582" stroke-width="8" stroke="url(#SvgjsLinearGradient1035)" stroke-linecap="round" class="TopRight"></path><path d="M846 147L1027 -34" stroke-width="6" stroke="url(#SvgjsLinearGradient1035)" stroke-linecap="round" class="TopRight"></path><path d="M229 349L75 503" stroke-width="6" stroke="url(#SvgjsLinearGradient1035)" stroke-linecap="round" class="TopRight"></path><path d="M1065 107L879 293" stroke-width="10" stroke="url(#SvgjsLinearGradient1035)" stroke-linecap="round" class="TopRight"></path><path d="M178 381L-127 686" stroke-width="8" stroke="url(#SvgjsLinearGradient1035)" stroke-linecap="round" class="TopRight"></path><path d="M1299 10L916 393" stroke-width="6" stroke="url(#SvgjsLinearGradient1035)" stroke-linecap="round" class="TopRight"></path><path d="M234 20L35 219" stroke-width="8" stroke="url(#SvgjsLinearGradient1035)" stroke-linecap="round" class="TopRight"></path><path d="M1026 247L608 665" stroke-width="10" stroke="url(#SvgjsLinearGradient1035)" stroke-linecap="round" class="TopRight"></path><path d="M1206 11L858 359" stroke-width="10" stroke="url(#SvgjsLinearGradient1035)" stroke-linecap="round" class="TopRight"></path><path d="M183 227L328 82" stroke-width="6" stroke="url(#SvgjsLinearGradient1035)" stroke-linecap="round" class="TopRight"></path><path d="M612 288L313 587" stroke-width="10" stroke="url(#SvgjsLinearGradient1035)" stroke-linecap="round" class="TopRight"></path><path d="M665 81L932 -186" stroke-width="6" stroke="url(#SvgjsLinearGradient1034)" stroke-linecap="round" class="BottomLeft"></path><path d="M690 517L981 226" stroke-width="10" stroke="url(#SvgjsLinearGradient1034)" stroke-linecap="round" class="BottomLeft"></path><path d="M924 386L689 621" stroke-width="8" stroke="url(#SvgjsLinearGradient1034)" stroke-linecap="round" class="BottomLeft"></path><path d="M256 48L546 -242" stroke-width="6" stroke="url(#SvgjsLinearGradient1035)" stroke-linecap="round" class="TopRight"></path></g><defs><mask id="SvgjsMask1033"><rect width="1440" height="560" fill="#ffffff"></rect></mask><linearGradient x1="100%" y1="0%" x2="0%" y2="100%" id="SvgjsLinearGradient1034"><stop stop-color="rgba(224, 90, 13, 0)" offset="0"></stop><stop stop-color="rgba(224, 90, 13, 1)" offset="1"></stop></linearGradient><linearGradient x1="0%" y1="100%" x2="100%" y2="0%" id="SvgjsLinearGradient1035"><stop stop-color="rgba(224, 90, 13, 0)" offset="0"></stop><stop stop-color="rgba(224, 90, 13, 1)" offset="1"></stop></linearGradient></defs></svg>