<svg id="visual" viewBox="0 0 1550 800" width="1550" height="800" xmlns="http://www.w3.org/2000/svg" xmlns:xlink="http://www.w3.org/1999/xlink" version="1.1"><rect x="0" y="0" width="1550" height="800" fill="#ffffff"></rect><defs><linearGradient id="grad1_0" x1="48.4%" y1="100%" x2="100%" y2="0%"><stop offset="11.25%" stop-color="#ffbe6a" stop-opacity="1"></stop><stop offset="88.75%" stop-color="#ffbe6a" stop-opacity="1"></stop></linearGradient></defs><defs><linearGradient id="grad1_1" x1="48.4%" y1="100%" x2="100%" y2="0%"><stop offset="11.25%" stop-color="#ffbe6a" stop-opacity="1"></stop><stop offset="88.75%" stop-color="#ffd39c" stop-opacity="1"></stop></linearGradient></defs><defs><linearGradient id="grad1_2" x1="48.4%" y1="100%" x2="100%" y2="0%"><stop offset="11.25%" stop-color="#ffe9cd" stop-opacity="1"></stop><stop offset="88.75%" stop-color="#ffd39c" stop-opacity="1"></stop></linearGradient></defs><defs><linearGradient id="grad1_3" x1="48.4%" y1="100%" x2="100%" y2="0%"><stop offset="11.25%" stop-color="#ffe9cd" stop-opacity="1"></stop><stop offset="88.75%" stop-color="#ffffff" stop-opacity="1"></stop></linearGradient></defs><defs><linearGradient id="grad2_0" x1="0%" y1="100%" x2="51.6%" y2="0%"><stop offset="11.25%" stop-color="#ffbe6a" stop-opacity="1"></stop><stop offset="88.75%" stop-color="#ffbe6a" stop-opacity="1"></stop></linearGradient></defs><defs><linearGradient id="grad2_1" x1="0%" y1="100%" x2="51.6%" y2="0%"><stop offset="11.25%" stop-color="#ffd39c" stop-opacity="1"></stop><stop offset="88.75%" stop-color="#ffbe6a" stop-opacity="1"></stop></linearGradient></defs><defs><linearGradient id="grad2_2" x1="0%" y1="100%" x2="51.6%" y2="0%"><stop offset="11.25%" stop-color="#ffd39c" stop-opacity="1"></stop><stop offset="88.75%" stop-color="#ffe9cd" stop-opacity="1"></stop></linearGradient></defs><defs><linearGradient id="grad2_3" x1="0%" y1="100%" x2="51.6%" y2="0%"><stop offset="11.25%" stop-color="#ffffff" stop-opacity="1"></stop><stop offset="88.75%" stop-color="#ffe9cd" stop-opacity="1"></stop></linearGradient></defs><g transform="translate(1550, 800)"><path d="M-800 0C-784.2 -81.1 -768.3 -162.2 -745.6 -242.3C-722.9 -322.4 -693.4 -401.4 -647.2 -470.2C-601 -539 -538.2 -597.6 -469.1 -645.6C-399.9 -693.6 -324.6 -731.2 -245.4 -755.1C-166.1 -779.1 -83.1 -789.6 0 -800L0 0Z" fill="#fff4e6"></path><path d="M-600 0C-588.1 -60.8 -576.2 -121.6 -559.2 -181.7C-542.2 -241.8 -520.1 -301.1 -485.4 -352.7C-450.8 -404.3 -403.6 -448.2 -351.8 -484.2C-300 -520.2 -243.4 -548.4 -184 -566.4C-124.6 -584.3 -62.3 -592.2 0 -600L0 0Z" fill="#ffdeb4"></path><path d="M-400 0C-392.1 -40.5 -384.2 -81.1 -372.8 -121.1C-361.5 -161.2 -346.7 -200.7 -323.6 -235.1C-300.5 -269.5 -269.1 -298.8 -234.5 -322.8C-200 -346.8 -162.3 -365.6 -122.7 -377.6C-83.1 -389.6 -41.5 -394.8 0 -400L0 0Z" fill="#ffc983"></path><path d="M-200 0C-196 -20.3 -192.1 -40.5 -186.4 -60.6C-180.7 -80.6 -173.4 -100.4 -161.8 -117.6C-150.3 -134.8 -134.5 -149.4 -117.3 -161.4C-100 -173.4 -81.1 -182.8 -61.3 -188.8C-41.5 -194.8 -20.8 -197.4 0 -200L0 0Z" fill="#ffbe6a"></path></g><g transform="translate(0, 0)"><path d="M800 0C792.7 83.8 785.3 167.5 760.8 247.2C736.4 326.9 694.8 402.5 642.4 466.7C589.9 531 526.6 583.9 459.6 632.7C392.7 681.4 322 726 244.7 753.2C167.5 780.4 83.8 790.2 0 800L0 0Z" fill="#fff4e6"></path><path d="M600 0C594.5 62.8 589 125.7 570.6 185.4C552.3 245.2 521.1 301.8 481.8 350C442.4 398.2 395 437.9 344.7 474.5C294.5 511.1 241.5 544.5 183.6 564.9C125.6 585.3 62.8 592.7 0 600L0 0Z" fill="#ffdeb4"></path><path d="M400 0C396.3 41.9 392.7 83.8 380.4 123.6C368.2 163.4 347.4 201.2 321.2 233.4C295 265.5 263.3 291.9 229.8 316.3C196.3 340.7 161 363 122.4 376.6C83.8 390.2 41.9 395.1 0 400L0 0Z" fill="#ffc983"></path><path d="M200 0C198.2 20.9 196.3 41.9 190.2 61.8C184.1 81.7 173.7 100.6 160.6 116.7C147.5 132.7 131.7 146 114.9 158.2C98.2 170.4 80.5 181.5 61.2 188.3C41.9 195.1 20.9 197.6 0 200L0 0Z" fill="#ffbe6a"></path></g></svg>