<svg id="visual" viewBox="0 0 1550 800" width="1550" height="800" xmlns="http://www.w3.org/2000/svg" xmlns:xlink="http://www.w3.org/1999/xlink" version="1.1"><rect x="0" y="0" width="1550" height="800" fill="#ffffff"></rect><defs><linearGradient id="grad1_0" x1="48.4%" y1="100%" x2="100%" y2="0%"><stop offset="11.25%" stop-color="#ff9000" stop-opacity="1"></stop><stop offset="88.75%" stop-color="#ff9000" stop-opacity="1"></stop></linearGradient></defs><defs><linearGradient id="grad1_1" x1="48.4%" y1="100%" x2="100%" y2="0%"><stop offset="11.25%" stop-color="#ff9000" stop-opacity="1"></stop><stop offset="88.75%" stop-color="#ffac55" stop-opacity="1"></stop></linearGradient></defs><defs><linearGradient id="grad1_2" x1="48.4%" y1="100%" x2="100%" y2="0%"><stop offset="11.25%" stop-color="#ffc78e" stop-opacity="1"></stop><stop offset="88.75%" stop-color="#ffac55" stop-opacity="1"></stop></linearGradient></defs><defs><linearGradient id="grad1_3" x1="48.4%" y1="100%" x2="100%" y2="0%"><stop offset="11.25%" stop-color="#ffc78e" stop-opacity="1"></stop><stop offset="88.75%" stop-color="#ffe3c6" stop-opacity="1"></stop></linearGradient></defs><defs><linearGradient id="grad1_4" x1="48.4%" y1="100%" x2="100%" y2="0%"><stop offset="11.25%" stop-color="#ffffff" stop-opacity="1"></stop><stop offset="88.75%" stop-color="#ffe3c6" stop-opacity="1"></stop></linearGradient></defs><defs><linearGradient id="grad2_0" x1="0%" y1="100%" x2="51.6%" y2="0%"><stop offset="11.25%" stop-color="#ff9000" stop-opacity="1"></stop><stop offset="88.75%" stop-color="#ff9000" stop-opacity="1"></stop></linearGradient></defs><defs><linearGradient id="grad2_1" x1="0%" y1="100%" x2="51.6%" y2="0%"><stop offset="11.25%" stop-color="#ffac55" stop-opacity="1"></stop><stop offset="88.75%" stop-color="#ff9000" stop-opacity="1"></stop></linearGradient></defs><defs><linearGradient id="grad2_2" x1="0%" y1="100%" x2="51.6%" y2="0%"><stop offset="11.25%" stop-color="#ffac55" stop-opacity="1"></stop><stop offset="88.75%" stop-color="#ffc78e" stop-opacity="1"></stop></linearGradient></defs><defs><linearGradient id="grad2_3" x1="0%" y1="100%" x2="51.6%" y2="0%"><stop offset="11.25%" stop-color="#ffe3c6" stop-opacity="1"></stop><stop offset="88.75%" stop-color="#ffc78e" stop-opacity="1"></stop></linearGradient></defs><defs><linearGradient id="grad2_4" x1="0%" y1="100%" x2="51.6%" y2="0%"><stop offset="11.25%" stop-color="#ffe3c6" stop-opacity="1"></stop><stop offset="88.75%" stop-color="#ffffff" stop-opacity="1"></stop></linearGradient></defs><g transform="translate(1550, 800)"><path d="M-800 0C-788.2 -58.2 -776.4 -116.4 -764.3 -174.5C-752.3 -232.5 -740 -290.4 -718.1 -345.8C-696.2 -401.2 -664.6 -454.1 -625.5 -498.8C-586.3 -543.4 -539.4 -579.8 -492.6 -617.6C-445.7 -655.5 -398.7 -694.7 -344.9 -716.3C-291.1 -737.8 -230.4 -741.6 -171.8 -752.6C-113.1 -763.6 -56.6 -781.8 0 -800L0 0Z" fill="#fff1e2"></path><path d="M-640 0C-630.6 -46.6 -621.1 -93.1 -611.5 -139.6C-601.8 -186 -592 -232.3 -574.5 -276.6C-556.9 -321 -531.7 -363.3 -500.4 -399C-469 -434.8 -431.6 -463.9 -394 -494.1C-356.5 -524.4 -319 -555.8 -276 -573C-232.9 -590.3 -184.3 -593.3 -137.4 -602.1C-90.5 -610.9 -45.3 -625.5 0 -640L0 0Z" fill="#ffd5aa"></path><path d="M-480 0C-472.9 -34.9 -465.8 -69.8 -458.6 -104.7C-451.4 -139.5 -444 -174.2 -430.8 -207.5C-417.7 -240.7 -398.8 -272.5 -375.3 -299.3C-351.8 -326.1 -323.7 -347.9 -295.5 -370.6C-267.4 -393.3 -239.2 -416.8 -207 -429.8C-174.7 -442.7 -138.3 -445 -103.1 -451.6C-67.9 -458.2 -33.9 -469.1 0 -480L0 0Z" fill="#ffb972"></path><path d="M-320 0C-315.3 -23.3 -310.6 -46.6 -305.7 -69.8C-300.9 -93 -296 -116.2 -287.2 -138.3C-278.5 -160.5 -265.9 -181.7 -250.2 -199.5C-234.5 -217.4 -215.8 -231.9 -197 -247.1C-178.3 -262.2 -159.5 -277.9 -138 -286.5C-116.5 -295.1 -92.2 -296.7 -68.7 -301.1C-45.3 -305.5 -22.6 -312.7 0 -320L0 0Z" fill="#ff9e35"></path><path d="M-160 0C-157.6 -11.6 -155.3 -23.3 -152.9 -34.9C-150.5 -46.5 -148 -58.1 -143.6 -69.2C-139.2 -80.2 -132.9 -90.8 -125.1 -99.8C-117.3 -108.7 -107.9 -116 -98.5 -123.5C-89.1 -131.1 -79.7 -138.9 -69 -143.3C-58.2 -147.6 -46.1 -148.3 -34.4 -150.5C-22.6 -152.7 -11.3 -156.4 0 -160L0 0Z" fill="#ff9000"></path></g><g transform="translate(0, 0)"><path d="M800 0C795.5 59.4 791.1 118.8 779.9 178C768.8 237.2 751 296.3 719.9 346.7C688.7 397 644.2 438.7 602.8 480.7C561.4 522.7 523.2 565.1 478.2 599.7C433.3 634.2 381.7 661 329.8 684.7C277.9 708.4 225.7 729.1 170.7 747.8C115.7 766.5 57.8 783.2 0 800L0 0Z" fill="#fff1e2"></path><path d="M640 0C636.4 47.5 632.9 95 624 142.4C615.1 189.8 600.8 237 575.9 277.3C551 317.6 515.3 351 482.2 384.6C449.1 418.2 418.5 452.1 382.6 479.7C346.6 507.4 305.3 528.8 263.8 547.8C222.3 566.8 180.5 583.3 136.5 598.2C92.5 613.2 46.3 626.6 0 640L0 0Z" fill="#ffd5aa"></path><path d="M480 0C477.3 35.6 474.6 71.3 468 106.8C461.3 142.3 450.6 177.8 431.9 208C413.2 238.2 386.5 263.2 361.7 288.4C336.8 313.6 313.9 339.1 286.9 359.8C260 380.5 229 396.6 197.9 410.8C166.7 425.1 135.4 437.4 102.4 448.7C69.4 459.9 34.7 469.9 0 480L0 0Z" fill="#ffb972"></path><path d="M320 0C318.2 23.8 316.4 47.5 312 71.2C307.5 94.9 300.4 118.5 287.9 138.7C275.5 158.8 257.7 175.5 241.1 192.3C224.6 209.1 209.3 226 191.3 239.9C173.3 253.7 152.7 264.4 131.9 273.9C111.1 283.4 90.3 291.6 68.3 299.1C46.3 306.6 23.1 313.3 0 320L0 0Z" fill="#ff9e35"></path><path d="M160 0C159.1 11.9 158.2 23.8 156 35.6C153.8 47.4 150.2 59.3 144 69.3C137.7 79.4 128.8 87.7 120.6 96.1C112.3 104.5 104.6 113 95.6 119.9C86.7 126.8 76.3 132.2 66 136.9C55.6 141.7 45.1 145.8 34.1 149.6C23.1 153.3 11.6 156.6 0 160L0 0Z" fill="#ff9000"></path></g></svg>