<svg id="visual" viewBox="0 0 900 600" width="900" height="600" xmlns="http://www.w3.org/2000/svg" xmlns:xlink="http://www.w3.org/1999/xlink" version="1.1"><rect x="0" y="0" width="900" height="600" fill="#ffffff"></rect><defs><linearGradient id="grad1_0" x1="33.3%" y1="0%" x2="100%" y2="100%"><stop offset="20%" stop-color="#ffffff" stop-opacity="1"></stop><stop offset="80%" stop-color="#ffffff" stop-opacity="1"></stop></linearGradient></defs><defs><linearGradient id="grad2_0" x1="0%" y1="0%" x2="66.7%" y2="100%"><stop offset="20%" stop-color="#ffffff" stop-opacity="1"></stop><stop offset="80%" stop-color="#ffffff" stop-opacity="1"></stop></linearGradient></defs><g transform="translate(900, 0)"><path d="M0 540.8C-52.2 454.2 -104.5 367.7 -192.5 333.4C-280.5 299.2 -404.4 317.3 -468.4 270.4C-532.4 223.6 -536.6 111.8 -540.8 0L0 0Z" fill="#F7770F"></path></g><g transform="translate(0, 600)"><path d="M0 -540.8C70.4 -485.7 140.7 -430.5 226.5 -392.3C312.3 -354.1 413.4 -333 468.4 -270.4C523.3 -207.9 532.1 -103.9 540.8 0L0 0Z" fill="#F7770F"></path></g></svg>