<svg xmlns="http://www.w3.org/2000/svg" version="1.1" xmlns:xlink="http://www.w3.org/1999/xlink" xmlns:svgjs="http://svgjs.com/svgjs" width="1440" height="560" preserveAspectRatio="none" viewBox="0 0 1440 560"><g mask="url(&quot;#SvgjsMask1030&quot;)" fill="none"><path d="M955 81L1232 -196" stroke-width="6" stroke="url(#SvgjsLinearGradient1031)" stroke-linecap="round" class="BottomLeft"></path><path d="M1033 160L1180 13" stroke-width="6" stroke="url(#SvgjsLinearGradient1032)" stroke-linecap="round" class="TopRight"></path><path d="M1338 437L1072 703" stroke-width="8" stroke="url(#SvgjsLinearGradient1032)" stroke-linecap="round" class="TopRight"></path><path d="M932 107L1242 -203" stroke-width="10" stroke="url(#SvgjsLinearGradient1031)" stroke-linecap="round" class="BottomLeft"></path><path d="M1386 191L1067 510" stroke-width="8" stroke="url(#SvgjsLinearGradient1031)" stroke-linecap="round" class="BottomLeft"></path><path d="M1034 438L706 766" stroke-width="10" stroke="url(#SvgjsLinearGradient1031)" stroke-linecap="round" class="BottomLeft"></path><path d="M323 83L81 325" stroke-width="6" stroke="url(#SvgjsLinearGradient1031)" stroke-linecap="round" class="BottomLeft"></path><path d="M1066 355L843 578" stroke-width="8" stroke="url(#SvgjsLinearGradient1032)" stroke-linecap="round" class="TopRight"></path><path d="M1183 115L792 506" stroke-width="8" stroke="url(#SvgjsLinearGradient1031)" stroke-linecap="round" class="BottomLeft"></path><path d="M53 264L211 106" stroke-width="6" stroke="url(#SvgjsLinearGradient1031)" stroke-linecap="round" class="BottomLeft"></path><path d="M55 13L-266 334" stroke-width="10" stroke="url(#SvgjsLinearGradient1032)" stroke-linecap="round" class="TopRight"></path><path d="M34 249L333 -50" stroke-width="6" stroke="url(#SvgjsLinearGradient1031)" stroke-linecap="round" class="BottomLeft"></path><path d="M1247 254L856 645" stroke-width="10" stroke="url(#SvgjsLinearGradient1032)" stroke-linecap="round" class="TopRight"></path><path d="M833 200L1223 -190" stroke-width="10" stroke="url(#SvgjsLinearGradient1031)" stroke-linecap="round" class="BottomLeft"></path><path d="M445 433L685 193" stroke-width="8" stroke="url(#SvgjsLinearGradient1031)" stroke-linecap="round" class="BottomLeft"></path><path d="M936 221L1214 -57" stroke-width="10" stroke="url(#SvgjsLinearGradient1032)" stroke-linecap="round" class="TopRight"></path><path d="M693 466L367 792" stroke-width="8" stroke="url(#SvgjsLinearGradient1031)" stroke-linecap="round" class="BottomLeft"></path><path d="M1402 49L1196 255" stroke-width="10" stroke="url(#SvgjsLinearGradient1031)" stroke-linecap="round" class="BottomLeft"></path><path d="M485 303L67 721" stroke-width="8" stroke="url(#SvgjsLinearGradient1031)" stroke-linecap="round" class="BottomLeft"></path><path d="M1214 54L840 428" stroke-width="8" stroke="url(#SvgjsLinearGradient1031)" stroke-linecap="round" class="BottomLeft"></path><path d="M156 343L-87 586" stroke-width="10" stroke="url(#SvgjsLinearGradient1032)" stroke-linecap="round" class="TopRight"></path><path d="M181 176L360 -3" stroke-width="6" stroke="url(#SvgjsLinearGradient1031)" stroke-linecap="round" class="BottomLeft"></path><path d="M1170 528L790 908" stroke-width="10" stroke="url(#SvgjsLinearGradient1032)" stroke-linecap="round" class="TopRight"></path><path d="M1006 238L708 536" stroke-width="8" stroke="url(#SvgjsLinearGradient1032)" stroke-linecap="round" class="TopRight"></path><path d="M69 111L391 -211" stroke-width="10" stroke="url(#SvgjsLinearGradient1031)" stroke-linecap="round" class="BottomLeft"></path><path d="M1019 91L1331 -221" stroke-width="10" stroke="url(#SvgjsLinearGradient1031)" stroke-linecap="round" class="BottomLeft"></path><path d="M387 189L107 469" stroke-width="8" stroke="url(#SvgjsLinearGradient1031)" stroke-linecap="round" class="BottomLeft"></path><path d="M109 532L-254 895" stroke-width="8" stroke="url(#SvgjsLinearGradient1032)" stroke-linecap="round" class="TopRight"></path><path d="M1224 244L1404 64" stroke-width="6" stroke="url(#SvgjsLinearGradient1032)" stroke-linecap="round" class="TopRight"></path><path d="M312 0L-102 414" stroke-width="10" stroke="url(#SvgjsLinearGradient1031)" stroke-linecap="round" class="BottomLeft"></path><path d="M1322 476L1551 247" stroke-width="10" stroke="url(#SvgjsLinearGradient1032)" stroke-linecap="round" class="TopRight"></path><path d="M339 439L561 217" stroke-width="10" stroke="url(#SvgjsLinearGradient1032)" stroke-linecap="round" class="TopRight"></path><path d="M1262 77L1425 -86" stroke-width="6" stroke="url(#SvgjsLinearGradient1032)" stroke-linecap="round" class="TopRight"></path><path d="M992 536L627 901" stroke-width="10" stroke="url(#SvgjsLinearGradient1032)" stroke-linecap="round" class="TopRight"></path><path d="M340 133L159 314" stroke-width="10" stroke="url(#SvgjsLinearGradient1032)" stroke-linecap="round" class="TopRight"></path><path d="M1008 488L846 650" stroke-width="8" stroke="url(#SvgjsLinearGradient1031)" stroke-linecap="round" class="BottomLeft"></path><path d="M749 65L495 319" stroke-width="8" stroke="url(#SvgjsLinearGradient1032)" stroke-linecap="round" class="TopRight"></path><path d="M489 470L638 321" stroke-width="8" stroke="url(#SvgjsLinearGradient1031)" stroke-linecap="round" class="BottomLeft"></path><path d="M161 313L-246 720" stroke-width="8" stroke="url(#SvgjsLinearGradient1031)" stroke-linecap="round" class="BottomLeft"></path></g><defs><mask id="SvgjsMask1030"><rect width="1440" height="560" fill="#ffffff"></rect></mask><linearGradient x1="100%" y1="0%" x2="0%" y2="100%" id="SvgjsLinearGradient1031"><stop stop-color="rgba(15, 17, 86, 0)" offset="0"></stop><stop stop-color="rgba(15, 17, 86, 1)" offset="1"></stop></linearGradient><linearGradient x1="0%" y1="100%" x2="100%" y2="0%" id="SvgjsLinearGradient1032"><stop stop-color="rgba(15, 17, 86, 0)" offset="0"></stop><stop stop-color="rgba(15, 17, 86, 1)" offset="1"></stop></linearGradient></defs></svg>